<svg width="488" height="300" viewBox="0 0 488 300" fill="none" xmlns="http://www.w3.org/2000/svg">
<path opacity="0.1" d="M487.739 192.683C487.747 200.811 486.764 208.91 484.811 216.8C484.154 219.459 483.391 222.062 482.521 224.61C481.457 227.755 480.224 230.84 478.827 233.853C478.123 235.376 477.379 236.87 476.595 238.333C476.608 246.668 474.892 254.915 471.556 262.553C465.525 276.258 454.77 287.339 441.252 293.776C432.8 297.809 423.564 299.93 414.199 299.988H92.596C78.2872 300.018 64.2255 296.259 51.8407 289.093L51.6502 288.985C49.8861 287.953 48.1663 286.86 46.4905 285.706C42.7203 283.101 39.1781 280.181 35.9021 276.976C31.4681 272.643 27.561 267.802 24.2619 262.553C16.5133 250.25 12.4085 236.003 12.4229 221.463C4.57576 207.694 0 191.201 0 173.477C0 151.116 7.27152 130.718 19.2182 115.276C21.7088 112.05 24.437 109.015 27.38 106.195C30.2838 103.405 33.4049 100.85 36.7137 98.555C39.3611 96.7167 42.1278 95.0566 44.9957 93.5858C46.1924 92.9771 47.3933 92.4015 48.6149 91.8673C49.6874 91.3911 50.7723 90.948 51.8697 90.5298C53.1865 90.0301 54.5199 89.5705 55.8698 89.1509C57.2198 88.7312 58.5518 88.3641 59.8658 88.0494C61.7983 87.5773 63.7639 87.1936 65.7626 86.8982C67.4189 86.6539 69.0753 86.4841 70.7317 86.3557C72.0485 86.2563 73.3778 86.2025 74.7153 86.1859H75.44C76.9142 86.1859 78.3801 86.2439 79.8335 86.3433C79.9868 86.0369 80.1524 85.7263 80.3056 85.424C80.8853 84.3184 81.4858 83.2169 82.0904 82.1402C82.089 82.1306 82.089 82.1208 82.0904 82.1112C82.1939 81.9207 82.2974 81.7344 82.4051 81.5522C82.8937 80.6702 83.4031 79.7964 83.9248 78.931C84.165 78.5169 84.401 78.1276 84.6453 77.7384C84.697 77.6416 84.7537 77.5477 84.8151 77.4568C85.0636 77.0427 85.3162 76.6286 85.5729 76.2145C86.8511 74.1716 88.1803 72.1646 89.5607 70.1936L89.9126 69.6884C90.128 69.3819 90.3267 69.0838 90.5669 68.7774C91.1384 67.9781 91.7264 67.1748 92.3185 66.388C92.7326 65.8248 93.1467 65.2658 93.5939 64.7316C94.6706 63.3513 95.7748 61.971 96.9067 60.5907C98.0386 59.2104 99.2146 57.848 100.435 56.5035C100.6 56.3172 100.766 56.135 100.94 55.9528L102.708 54.0231C102.795 53.932 102.87 53.8492 102.953 53.7664C103.164 53.5386 103.367 53.3109 103.594 53.0914C104.543 52.0851 105.516 51.0996 106.493 50.1182C111.467 45.1645 116.765 40.5482 122.353 36.2998C122.572 36.1259 122.796 35.9602 123.015 35.7946C124.067 35.0037 125.136 34.221 126.204 33.4508C132.08 29.2351 138.223 25.4036 144.594 21.9804C145.033 21.7278 145.48 21.4917 145.932 21.2599C151.643 18.2382 157.517 15.5342 163.526 13.1601C166.802 11.864 170.152 10.6466 173.523 9.53265C175.767 8.79556 178.02 8.09574 180.301 7.43733C183.868 6.41037 187.46 5.4897 191.076 4.67531C201.731 2.28467 212.57 0.807891 223.475 0.261048C226.788 0.092649 230.138 0.00569002 233.525 0.000168746C249.87 -0.0214694 266.15 2.03796 281.974 6.12879C282.138 6.37604 282.362 6.57761 282.625 6.71452C282.888 6.85144 283.181 6.9192 283.478 6.91143H284.869C285.474 7.07706 286.074 7.2427 286.679 7.41662C290.055 8.38837 293.383 9.44984 296.662 10.601L297.491 10.8992C305.585 13.7775 313.461 17.2373 321.057 21.2516C327.904 24.8615 334.496 28.9346 340.788 33.4426C341.757 34.1382 342.713 34.8394 343.654 35.5462C344.797 34.8146 345.959 34.1134 347.141 33.4426C351.704 30.8438 356.55 28.7778 361.584 27.2849C372.11 24.1702 383.247 23.7346 393.983 26.0178C407.752 28.9372 420.216 36.1839 430.283 46.4907C434.382 50.7078 438.03 55.3403 441.169 60.3132C441.397 60.6693 441.625 61.0296 441.844 61.394C444.542 65.7954 446.861 70.4182 448.776 75.2124C448.847 75.3905 448.917 75.5561 448.979 75.73C450.747 80.2193 452.173 84.8358 453.245 89.5401C453.294 89.7803 453.352 90.0163 453.402 90.2565C454.404 94.8092 455.085 99.4267 455.439 104.075C455.439 104.241 455.439 104.41 455.472 104.584C455.646 106.989 455.735 109.418 455.737 111.872C455.737 114.067 455.663 116.245 455.526 118.407C455.526 118.643 455.493 118.887 455.472 119.131C455.435 119.757 455.381 120.374 455.327 121.003C458.49 123.554 461.45 126.347 464.181 129.355C465.387 130.672 466.555 132.039 467.684 133.455C471.123 137.765 474.146 142.392 476.711 147.273C483.714 160.491 487.739 176.041 487.739 192.683Z" fill="#1890FF"/>
<path opacity="0.1" d="M440.946 292.244C440.946 295.072 431.202 297.723 414.199 300H92.5959C78.2872 300.031 64.2255 296.272 51.8406 289.105L51.6501 288.998C56.5365 287.217 65.3567 285.556 77.3614 284.057L77.8997 283.991C83.2829 283.333 89.2997 282.708 95.8756 282.115C96.0412 282.115 96.211 282.091 96.3766 282.07C101.594 281.606 107.145 281.171 113.027 280.765C113.214 280.765 113.396 280.732 113.582 280.724C115.852 280.561 118.168 280.407 120.531 280.26L121.442 280.202C138.648 279.134 158.205 278.281 179.415 277.718H179.44C182.411 277.635 185.413 277.562 188.447 277.498C191.82 277.418 195.235 277.348 198.691 277.287C201.329 277.229 204 277.188 206.679 277.146H206.741C218.829 276.964 231.318 276.873 244.089 276.873C275.668 276.873 305.516 277.449 331.964 278.484H332.039C336.105 278.641 340.097 278.815 343.989 278.993L347.302 279.15C351.694 279.36 355.973 279.585 360.139 279.825C409.127 282.612 440.946 287.138 440.946 292.244Z" fill="#1890FF"/>
<g opacity="0.2">
<path opacity="0.2" d="M281.71 274.972C281.696 275.419 281.645 275.864 281.556 276.301C278.674 275.843 275.776 275.429 272.86 275.059C272.86 274.943 272.86 274.823 272.86 274.703C272.887 273.461 273.245 272.249 273.896 271.191C274.749 269.842 276.045 268.997 277.473 269.042C278.902 269.088 280.14 270.011 280.906 271.407C281.486 272.503 281.763 273.733 281.71 274.972Z" fill="#3F3D56"/>
<path opacity="0.2" d="M281.947 267.896C282.049 264.694 280.148 262.035 277.702 261.958C275.256 261.88 273.191 264.414 273.09 267.616C272.989 270.819 274.89 273.477 277.336 273.555C279.781 273.632 281.846 271.099 281.947 267.896Z" fill="#3F3D56"/>
<path opacity="0.2" d="M282.173 260.806C282.275 257.604 280.374 254.945 277.928 254.868C275.482 254.791 273.417 257.324 273.316 260.527C273.215 263.729 275.116 266.388 277.562 266.465C280.007 266.542 282.072 264.009 282.173 260.806Z" fill="#3F3D56"/>
<path opacity="0.2" d="M282.395 253.717C282.496 250.515 280.596 247.856 278.15 247.778C275.704 247.701 273.639 250.235 273.538 253.437C273.437 256.64 275.337 259.298 277.783 259.376C280.229 259.453 282.294 256.92 282.395 253.717Z" fill="#3F3D56"/>
<path opacity="0.2" d="M282.617 246.627C282.718 243.425 280.817 240.766 278.371 240.689C275.926 240.612 273.861 243.145 273.76 246.348C273.658 249.55 275.559 252.209 278.005 252.286C280.451 252.363 282.516 249.83 282.617 246.627Z" fill="#3F3D56"/>
<path opacity="0.2" d="M263.117 197.437C262.533 196.647 262.008 195.817 261.543 194.952L273.245 193.408L260.649 193.105C259.524 190.439 258.956 187.571 258.978 184.678C259 181.784 259.612 178.925 260.777 176.277L277.39 185.573L262.172 173.63C263.708 171.147 265.738 169.008 268.138 167.345C270.537 165.682 273.253 164.531 276.117 163.966C278.981 163.4 281.931 163.43 284.782 164.056C287.634 164.681 290.326 165.887 292.69 167.6C295.054 169.312 297.04 171.494 298.523 174.008C300.007 176.522 300.956 179.315 301.311 182.213C301.666 185.111 301.42 188.05 300.588 190.848C299.757 193.647 298.357 196.243 296.476 198.476C297.383 199.704 298.154 201.028 298.774 202.423L283.416 209.793L299.702 204.895C300.728 208.279 300.893 211.865 300.183 215.33C299.473 218.794 297.91 222.026 295.636 224.734C298 227.942 299.414 231.751 299.716 235.725C300.018 239.699 299.195 243.677 297.342 247.206C295.489 250.734 292.68 253.67 289.237 255.677C285.794 257.685 281.856 258.683 277.873 258.557C273.889 258.431 270.022 257.187 266.712 254.967C263.402 252.747 260.784 249.64 259.157 246.002C257.53 242.364 256.96 238.341 257.511 234.394C258.063 230.447 259.714 226.735 262.276 223.682C259.451 219.848 257.997 215.176 258.147 210.416C258.297 205.656 260.043 201.085 263.104 197.437H263.117Z" fill="#1890FF"/>
<path opacity="0.1" d="M300.605 211.756C300.46 216.519 298.709 221.093 295.636 224.734C298 227.942 299.414 231.751 299.716 235.725C300.018 239.699 299.195 243.677 297.342 247.206C295.489 250.734 292.68 253.67 289.237 255.677C285.794 257.685 281.856 258.683 277.873 258.557C273.889 258.431 270.022 257.187 266.712 254.967C263.402 252.747 260.784 249.64 259.157 246.002C257.53 242.364 256.96 238.341 257.511 234.394C258.063 230.447 259.714 226.735 262.276 223.682C259.555 219.984 300.679 209.375 300.605 211.756Z" fill="black"/>
</g>
<g opacity="0.2">
<path opacity="0.2" d="M218.767 274.972C218.754 275.419 218.702 275.864 218.614 276.301C215.732 275.843 212.833 275.429 209.918 275.059C209.918 274.943 209.918 274.823 209.918 274.703C209.945 273.461 210.302 272.249 210.953 271.191C211.806 269.842 213.102 268.997 214.531 269.042C215.959 269.088 217.198 270.011 217.964 271.407C218.543 272.503 218.82 273.733 218.767 274.972Z" fill="#3F3D56"/>
<path opacity="0.2" d="M219 267.898C219.102 264.695 217.201 262.037 214.755 261.959C212.309 261.882 210.244 264.415 210.143 267.618C210.042 270.82 211.943 273.479 214.388 273.556C216.834 273.634 218.899 271.1 219 267.898Z" fill="#3F3D56"/>
<path opacity="0.2" d="M219.226 260.808C219.327 257.606 217.427 254.947 214.981 254.87C212.535 254.792 210.47 257.326 210.369 260.528C210.268 263.731 212.168 266.39 214.614 266.467C217.06 266.544 219.125 264.011 219.226 260.808Z" fill="#3F3D56"/>
<path opacity="0.2" d="M219.448 253.719C219.549 250.516 217.648 247.857 215.203 247.78C212.757 247.703 210.692 250.236 210.591 253.439C210.49 256.641 212.39 259.3 214.836 259.377C217.282 259.455 219.347 256.921 219.448 253.719Z" fill="#3F3D56"/>
<path opacity="0.2" d="M219.67 246.629C219.771 243.427 217.87 240.768 215.424 240.691C212.979 240.613 210.914 243.147 210.813 246.349C210.711 249.552 212.612 252.211 215.058 252.288C217.504 252.365 219.569 249.832 219.67 246.629Z" fill="#3F3D56"/>
<path opacity="0.2" d="M200.174 197.437C199.591 196.647 199.065 195.817 198.6 194.952L210.303 193.408L197.706 193.105C196.582 190.439 196.013 187.571 196.036 184.678C196.058 181.784 196.67 178.925 197.834 176.277L214.448 185.573L199.23 173.63C200.765 171.147 202.796 169.008 205.195 167.345C207.594 165.682 210.311 164.531 213.175 163.966C216.038 163.4 218.988 163.43 221.84 164.056C224.691 164.681 227.383 165.887 229.747 167.6C232.112 169.312 234.097 171.494 235.581 174.008C237.064 176.522 238.013 179.315 238.368 182.213C238.724 185.111 238.478 188.05 237.646 190.848C236.814 193.647 235.414 196.243 233.534 198.476C234.441 199.704 235.211 201.028 235.832 202.423L220.473 209.793L236.759 204.895C237.785 208.279 237.95 211.865 237.24 215.33C236.53 218.794 234.967 222.026 232.693 224.734C235.058 227.942 236.472 231.751 236.773 235.725C237.075 239.699 236.252 243.677 234.399 247.206C232.546 250.734 229.738 253.67 226.295 255.677C222.852 257.685 218.914 258.683 214.93 258.557C210.947 258.431 207.079 257.187 203.769 254.967C200.46 252.747 197.842 249.64 196.215 246.002C194.588 242.364 194.017 238.341 194.569 234.394C195.12 230.447 196.771 226.735 199.333 223.682C196.508 219.848 195.054 215.176 195.204 210.416C195.355 205.656 197.101 201.085 200.162 197.437H200.174Z" fill="#1890FF"/>
<path opacity="0.1" d="M237.662 211.756C237.517 216.519 235.766 221.093 232.693 224.734C235.058 227.942 236.472 231.751 236.773 235.725C237.075 239.699 236.252 243.677 234.399 247.206C232.546 250.734 229.738 253.67 226.295 255.677C222.852 257.685 218.914 258.683 214.93 258.557C210.947 258.431 207.079 257.187 203.769 254.967C200.46 252.747 197.842 249.64 196.215 246.002C194.588 242.364 194.017 238.341 194.569 234.394C195.12 230.447 196.771 226.735 199.333 223.682C196.613 219.984 237.737 209.375 237.662 211.756Z" fill="black"/>
</g>
<g opacity="0.2">
<path opacity="0.2" d="M390.7 279.502C390.668 280.348 390.567 281.191 390.397 282.02C384.848 281.134 379.259 280.342 373.63 279.643C373.63 279.42 373.63 279.192 373.63 278.96C373.683 276.569 374.372 274.234 375.626 272.198C377.283 269.601 379.767 267.974 382.513 268.057C385.258 268.14 387.648 269.924 389.138 272.612C390.263 274.729 390.802 277.108 390.7 279.502Z" fill="#3F3D56"/>
<path opacity="0.2" d="M391.15 265.869C391.345 259.702 387.684 254.582 382.973 254.433C378.262 254.284 374.284 259.163 374.09 265.33C373.895 271.497 377.556 276.617 382.267 276.766C386.978 276.915 390.955 272.036 391.15 265.869Z" fill="#3F3D56"/>
<path opacity="0.2" d="M391.58 252.22C391.775 246.053 388.114 240.933 383.403 240.784C378.692 240.635 374.715 245.514 374.52 251.681C374.325 257.848 377.986 262.968 382.697 263.117C387.408 263.266 391.386 258.387 391.58 252.22Z" fill="#3F3D56"/>
<path opacity="0.2" d="M392.015 238.571C392.21 232.404 388.549 227.284 383.838 227.135C379.126 226.986 375.149 231.865 374.954 238.032C374.76 244.2 378.421 249.32 383.132 249.469C387.843 249.617 391.82 244.739 392.015 238.571Z" fill="#3F3D56"/>
<path opacity="0.2" d="M391.96 224.302C392.145 218.131 388.474 213.015 383.761 212.873C379.047 212.732 375.076 217.619 374.891 223.789C374.706 229.96 378.377 235.076 383.09 235.218C387.804 235.359 391.775 230.472 391.96 224.302Z" fill="#3F3D56"/>
<path opacity="0.2" d="M354.901 130.237C353.783 128.717 352.772 127.122 351.874 125.463L374.401 122.49L350.155 121.906C347.99 116.773 346.894 111.252 346.935 105.682C346.977 100.111 348.154 94.607 350.395 89.5069L382.384 107.4L353.091 84.4094C356.053 79.6407 359.965 75.5331 364.584 72.3426C369.203 69.1522 374.43 66.9472 379.938 65.8652C385.447 64.7832 391.119 64.8473 396.601 66.0535C402.084 67.2597 407.259 69.5822 411.805 72.8762C416.351 76.1702 420.169 80.3651 423.023 85.1996C425.876 90.034 427.703 95.4043 428.39 100.976C429.077 106.547 428.609 112.201 427.015 117.583C425.422 122.966 422.737 127.963 419.127 132.262C420.872 134.629 422.356 137.176 423.554 139.861L393.983 154.06L425.334 144.619C427.31 151.126 427.632 158.023 426.27 164.686C424.909 171.349 421.907 177.567 417.537 182.778C422.088 188.954 424.809 196.286 425.39 203.936C425.97 211.586 424.386 219.245 420.819 226.037C417.251 232.829 411.844 238.481 405.217 242.345C398.589 246.209 391.007 248.13 383.339 247.888C375.671 247.646 368.226 245.251 361.854 240.977C355.483 236.704 350.443 230.723 347.311 223.72C344.178 216.716 343.08 208.973 344.141 201.375C345.202 193.777 348.38 186.63 353.311 180.753C347.875 173.372 345.077 164.38 345.366 155.218C345.654 146.056 349.012 137.257 354.901 130.233V130.237Z" fill="#1890FF"/>
<path opacity="0.1" d="M427.078 157.8C426.806 166.963 423.45 175.767 417.554 182.786C422.105 188.962 424.826 196.295 425.406 203.945C425.987 211.595 424.403 219.253 420.835 226.046C417.268 232.838 411.861 238.489 405.233 242.353C398.605 246.217 391.024 248.138 383.356 247.896C375.688 247.654 368.242 245.26 361.871 240.986C355.5 236.712 350.46 230.731 347.327 223.728C344.195 216.725 343.096 208.981 344.157 201.383C345.218 193.785 348.396 186.638 353.327 180.761C348.052 173.635 427.223 153.216 427.078 157.8Z" fill="black"/>
</g>
<path d="M65.3608 280.231L69.7047 280.219H75.8292L83.5728 154.425L160.259 26.4567L156.926 22.8789V13.8185L73.9906 151.46L65.3608 280.231Z" fill="#F1C0C0"/>
<path opacity="0.1" d="M70.1687 280.219H75.8294L83.573 154.425L160.259 26.4567L156.926 22.8789L77.8253 152.507L70.1687 280.219Z" fill="black"/>
<path d="M52.5613 281.279L251.265 296.484L251.435 296.497L443.737 284.67L443.882 284.662V276.542L231.989 272.653L55.2074 272.483H53.9154L53.7746 273.394L52.5613 281.279Z" fill="#F1C0C0"/>
<path opacity="0.1" d="M52.5613 281.279L251.265 296.484L251.435 296.497L443.737 284.67L443.882 284.513V276.711H443.712L251.265 283.138L55.2074 272.483H55.1784L54.8305 272.711L53.7746 273.394L52.5613 281.279Z" fill="black"/>
<path opacity="0.1" d="M52.5613 281.279L251.265 296.484V283.138L54.8305 272.711L53.7746 273.394L52.5613 281.279Z" fill="black"/>
<path d="M156.901 22.7092L244.503 116.734L241.795 282.124L249.236 283.022L249.36 283.039H256.802L257.692 123.836L421.728 178.629L424.494 276.19L430.482 276.861L432.511 277.088L427.815 171.862L256.338 111.661L162.313 13.9138H156.901V22.7092Z" fill="#F1C0C0"/>
<path opacity="0.1" d="M257.017 120.792L257.692 123.835L421.728 178.629L424.494 276.19L430.482 276.86L425.786 176.6L257.017 120.792Z" fill="black"/>
<path opacity="0.1" d="M156.901 22.7092L244.503 116.734L241.795 282.124L249.236 283.022L251.265 111.322L156.901 13.9138V22.7092Z" fill="black"/>
<path d="M257.336 187.167L317.5 199.015L317.52 199.019L422.895 219.777L427.72 217.844L427.703 217.504L427.388 210.775L257.398 176.426L257.336 187.167Z" fill="#F1C0C0"/>
<path opacity="0.1" d="M317.521 199.019L422.895 219.777L427.72 217.844L427.703 217.504L317.521 199.019Z" fill="black"/>
<path d="M321.55 145.166L323.177 234.751L324.018 280.712L331.426 280.463L336.088 280.306L334.639 146.462L331.426 145.393L330.722 145.166H321.55Z" fill="#F1C0C0"/>
<path opacity="0.1" d="M321.616 145.145V145.166L323.177 234.751L324.018 280.712L331.426 280.463V145.145H321.616Z" fill="black"/>
<path d="M205.507 168.044C205.942 168.281 206.357 168.551 206.75 168.852C207.214 169.258 207.63 169.715 207.992 170.214C209.769 172.512 211.408 175.183 211.234 178.082C211.238 178.504 211.158 178.922 211 179.313C210.842 179.704 210.607 180.059 210.311 180.36C209.578 180.985 208.526 181.014 207.566 181.014C206.522 181.014 205.425 181.014 204.522 180.476C203.619 179.937 202.866 178.89 201.797 178.914C201.646 178.939 201.493 178.939 201.342 178.914C200.973 178.794 200.899 178.31 200.658 178.003C200.244 177.453 199.371 177.589 198.72 177.829C198.07 178.07 197.35 178.43 196.708 178.152C196.335 177.956 196.031 177.651 195.834 177.279C194.298 174.794 193.971 171.808 193.681 168.922C193.503 167.166 192.145 161.179 195.892 162.541C197.549 163.137 199.097 164.33 200.605 165.204L205.507 168.044Z" fill="#3F3D56"/>
<path d="M201.806 168.636C202.14 168.877 202.546 168.999 202.958 168.983C203.37 168.966 203.765 168.812 204.079 168.545C204.696 167.988 205.089 167.226 205.185 166.4C205.599 166.272 205.81 166.814 206.075 167.146C206.539 167.709 207.483 167.701 207.905 168.301C208.199 168.715 208.133 169.291 208.34 169.759C208.609 170.363 209.276 170.678 209.731 171.167C210.162 171.7 210.472 172.32 210.642 172.985L211.322 175.022C211.646 175.869 211.855 176.756 211.943 177.66C211.985 178.111 211.938 178.567 211.803 179C211.668 179.433 211.448 179.834 211.156 180.181C210.245 181.163 208.75 181.266 207.429 181.237C206.988 181.247 206.548 181.195 206.12 181.084C204.949 180.72 204.199 179.54 203.888 178.351C203.578 177.163 203.611 175.916 203.429 174.699C203.232 173.503 202.884 172.337 202.394 171.229C202.029 170.367 201.027 169.084 201.044 168.169C201.342 168.169 201.557 168.442 201.806 168.636Z" fill="#3F3D56"/>
<path d="M203.292 164.442C203.099 163.854 202.986 163.242 202.957 162.624C202.957 161.382 203.524 160.214 204.096 159.104L199.362 159.746C198.791 159.825 198.153 159.94 197.83 160.417C197.708 160.653 197.644 160.915 197.644 161.181C197.644 161.447 197.708 161.709 197.83 161.945C198.068 162.417 198.256 162.912 198.393 163.423C198.404 163.87 198.455 164.315 198.547 164.752C198.694 165.074 198.9 165.364 199.155 165.609C200.509 167.108 201.524 168.877 202.534 170.628C202.505 170.579 205.388 168.347 205.272 167.618C205.205 167.204 204.373 166.707 204.108 166.309C203.742 165.732 203.467 165.102 203.292 164.442Z" fill="#BE6F72"/>
<path d="M243.874 148.263V152.342L174.028 165.966L170.405 168.16H157.903V165.862L226.527 149.282L243.874 148.263Z" fill="#F1C0C0"/>
<path opacity="0.1" d="M243.874 152.342L174.028 165.966L170.405 168.16H157.903L227.036 153.365L243.874 152.342Z" fill="black"/>
<path d="M187.797 264.052C187.019 263.11 185.944 262.459 184.749 262.205C183.553 261.95 182.307 262.108 181.213 262.653C180.978 262.763 180.772 262.924 180.608 263.125C180.194 263.705 180.459 264.504 180.496 265.22C180.592 266.968 179.2 268.388 177.95 269.61C177.279 270.264 176.595 270.964 176.293 271.854C175.991 272.744 176.215 273.875 177.026 274.339C177.38 274.516 177.766 274.623 178.161 274.653C179.484 274.912 180.842 274.949 182.178 274.765C183.498 274.513 184.795 273.763 185.366 272.546C185.476 272.215 185.659 271.914 185.9 271.664C186.629 271.088 187.747 271.763 188.575 271.353C189.259 271.013 189.288 270.479 189.296 269.775C189.321 267.829 189.031 265.626 187.797 264.052Z" fill="#1890FF"/>
<path d="M197.735 263.978C198.244 265.32 198.315 266.781 198.381 268.214C198.418 269.042 198.443 269.928 197.996 270.628C197.549 271.328 196.675 271.697 195.838 271.871C194.112 272.227 192.111 271.891 190.998 270.521C190.145 269.473 189.966 268.036 190.124 266.678C190.256 265.564 190.538 264.259 189.739 263.469C189.532 263.257 189.263 263.108 189.072 262.881C188.658 262.375 188.724 261.613 188.948 260.992C189.239 260.398 189.457 259.771 189.598 259.125C189.631 258.818 195.205 259.34 195.718 259.593C196.418 259.936 196.31 260.512 196.522 261.208C196.816 262.177 197.379 263.05 197.735 263.978Z" fill="#1890FF"/>
<path d="M198.758 204.489C199.851 205.197 200.273 206.588 200.443 207.88C200.911 211.421 200.091 214.999 200.029 218.572C199.971 223.579 201.42 228.676 200.182 233.525C199.441 236.424 200.07 239.737 199.375 242.664C199.168 243.534 198.787 244.354 198.588 245.224C198.174 247.108 198.609 249.079 199.192 250.922C199.379 251.418 199.497 251.938 199.544 252.466C199.516 253.279 199.31 254.077 198.94 254.802L196.455 260.678C196.178 261.336 195.085 261.444 194.385 261.531C193.068 261.688 191.598 261.8 190.55 260.984C189.503 260.168 189.25 258.802 189.089 257.526C188.779 255.078 188.64 252.611 188.674 250.143C188.72 249.499 188.663 248.852 188.505 248.226C188.277 247.518 187.776 246.905 187.639 246.155C187.465 245.186 187.958 244.234 188.14 243.257C188.265 242.364 188.251 241.457 188.099 240.569C187.937 239.244 187.751 237.919 187.54 236.602C187.242 234.759 187.668 232.941 187.954 231.095C188.223 229.36 187.879 227.591 187.54 225.869C187.569 227.267 187.395 228.662 187.022 230.01C186.803 230.668 186.488 231.298 186.298 231.968C185.449 234.979 187.258 238.138 187.002 241.257C186.881 242.714 186.31 244.155 186.471 245.592C186.583 246.644 187.072 247.609 187.407 248.611C187.743 249.613 187.917 250.76 187.407 251.696C186.062 254.238 187.068 257.696 188.273 260.305C188.517 260.768 188.73 261.246 188.91 261.738C189.267 262.914 188.968 264.177 189.064 265.402C188.717 265.459 188.362 265.436 188.025 265.335C187.689 265.234 187.38 265.057 187.122 264.819C186.939 264.628 186.79 264.404 186.612 264.206C186.115 263.732 185.526 263.364 184.881 263.125C184.503 262.913 184.072 262.814 183.639 262.839C183.184 262.966 182.775 263.221 182.459 263.572C182.049 263.932 181.615 264.263 181.159 264.562C180.964 264.711 180.737 264.812 180.496 264.856C180.375 264.875 180.251 264.855 180.142 264.799C180.032 264.743 179.943 264.654 179.887 264.545C179.861 264.476 179.846 264.404 179.842 264.33C179.688 263.08 179.606 261.821 179.597 260.562C179.597 258.396 177.005 256.905 176.678 254.764C176.417 253.038 176.902 251.278 176.74 249.538C176.662 248.644 176.413 247.766 176.43 246.872C176.43 246.292 176.562 245.725 176.608 245.149C176.646 244.51 176.636 243.869 176.579 243.232L176.45 241.232C176.326 239.256 176.189 237.24 175.411 235.434C174.488 233.326 173.941 231.073 173.796 228.776C173.713 227.326 173.767 225.877 173.601 224.424C173.452 223.111 173.121 221.806 173.216 220.49C173.295 219.471 173.63 218.485 173.709 217.467C173.871 215.508 173.125 213.603 172.541 211.727C171.957 209.851 171.527 207.773 172.293 205.963C172.402 205.666 172.585 205.401 172.823 205.193C173.117 204.999 173.451 204.874 173.8 204.829C180.905 203.336 188.187 202.872 195.424 203.45C196.604 203.516 197.749 203.873 198.758 204.489Z" fill="#3F3D56"/>
<path d="M175.25 160.508C178.913 160.508 181.883 157.538 181.883 153.874C181.883 150.21 178.913 147.24 175.25 147.24C171.586 147.24 168.616 150.21 168.616 153.874C168.616 157.538 171.586 160.508 175.25 160.508Z" fill="#BE6F72"/>
<path d="M173.966 162.16C174.061 162.539 174.061 162.936 173.966 163.315C173.862 163.58 173.715 163.827 173.531 164.044C172.889 164.873 172.178 165.645 171.407 166.355C171.8 167.233 172.507 167.932 173.39 168.314C174.267 168.687 175.186 168.949 176.127 169.096C176.597 169.22 177.086 169.253 177.568 169.196C178.013 169.084 178.434 168.893 178.811 168.632L182.496 166.425C183.052 166.124 183.567 165.752 184.028 165.32C184.704 164.625 185.087 163.697 185.097 162.727C185.114 162.554 185.067 162.38 184.964 162.239C184.823 162.116 184.646 162.042 184.459 162.028C183.163 161.742 182.14 160.69 181.56 159.497C181.036 158.275 180.697 156.981 180.554 155.659L176.624 157.729C176.04 158.04 175.461 158.35 174.856 158.62C174.471 158.793 173.693 158.938 173.419 159.29C172.897 159.941 173.829 161.377 173.966 162.16Z" fill="#BE6F72"/>
<path d="M171.431 165.15C170.872 165.609 170.435 166.199 170.16 166.868C169.903 167.697 170.16 168.57 170.392 169.39C171.479 172.885 172.309 176.454 172.877 180.07C173.225 182.554 173.353 185.076 173.523 187.59C173.87 192.716 174.376 200.89 175.051 205.984C177.535 206.096 179.958 205.371 182.422 205.106C187.026 204.617 191.768 205.735 196.277 204.692C195.184 200.373 194.091 192.998 192.998 188.683C192.514 186.983 192.179 185.244 191.995 183.486C191.9 182.223 191.958 180.956 191.975 179.685C192.012 177.2 191.875 174.715 191.739 172.231C191.581 169.332 191.424 166.434 190.737 163.597C190.689 163.236 190.519 162.901 190.256 162.649C189.842 162.346 189.304 162.454 188.811 162.52C187.302 162.712 185.775 162.35 184.513 161.502C183.966 161.129 183.233 160.673 182.724 161.088C182.507 161.337 182.363 161.643 182.31 161.97C182.084 162.555 181.737 163.086 181.29 163.527C180.842 163.968 180.307 164.308 179.718 164.525C178.537 164.952 177.302 165.206 176.049 165.278C175.665 165.361 175.265 165.315 174.91 165.15C174.322 164.79 174.28 163.493 173.539 163.407C172.889 163.332 171.87 164.732 171.431 165.15Z" fill="#3F3D56"/>
<path d="M181.229 175.262C179.701 173.8 179.03 171.68 177.916 169.879C177.158 168.668 176.189 167.602 175.055 166.732C174.485 166.355 173.962 165.912 173.498 165.411C173.104 164.926 172.806 164.28 172.21 164.094C171.964 164.04 171.708 164.047 171.465 164.114C171.222 164.181 170.998 164.307 170.814 164.479C170.449 164.827 170.104 165.195 169.779 165.58C168.023 167.398 164.938 167.651 163.547 169.755C163.172 170.201 162.917 170.735 162.806 171.307C162.405 174.369 163.197 177.468 165.017 179.962C165.37 180.54 165.911 180.979 166.549 181.204C166.463 181.976 166.565 182.758 166.847 183.482C167.614 186.103 168.556 188.669 169.667 191.163C169.402 192.139 169.216 193.135 169.113 194.141C168.823 196.671 169.092 199.238 168.819 201.772C168.595 203.843 167.99 205.86 167.97 207.934C167.97 208.265 167.999 208.659 168.284 208.829C168.436 208.907 168.607 208.942 168.777 208.932L173.87 209.085C176.827 209.172 179.813 209.259 182.724 208.713C183.111 208.655 183.488 208.537 183.838 208.361C184.823 207.81 185.15 206.568 185.308 205.462C185.513 204.028 185.595 202.579 185.552 201.131C186.169 203.081 186.902 205.098 188.766 205.942C189.751 206.39 190.877 206.356 191.958 206.328C194.288 206.224 196.609 205.985 198.911 205.611C199.053 205.629 199.197 205.613 199.331 205.565C199.466 205.517 199.587 205.438 199.686 205.334C199.785 205.231 199.858 205.106 199.899 204.969C199.941 204.832 199.95 204.688 199.925 204.547L199.95 202.286C200 197.694 198.861 193.304 198.418 188.733C198.277 187.292 198.29 185.834 197.938 184.422C197.793 183.83 197.582 183.25 197.453 182.654C197.343 182.07 197.274 181.479 197.246 180.885L196.923 176.33C196.77 174.223 196.551 172.189 196.389 170.086C196.3 168.037 196.003 166.003 195.503 164.015C195.143 162.773 194.393 161.365 193.097 161.212C192.405 161.133 191.735 161.435 191.076 161.647C189.458 162.156 187.721 162.149 186.107 161.626C185.608 161.429 185.089 161.29 184.558 161.212C184.291 161.175 184.019 161.211 183.771 161.314C183.522 161.417 183.305 161.585 183.142 161.8C182.981 162.123 182.906 162.482 182.923 162.843C182.728 166.98 182.368 171.241 181.229 175.262Z" fill="#1890FF"/>
<path d="M174.566 175.386C172.657 173.374 170.699 171.324 168.239 170.044C167.27 169.539 166.168 169.158 165.096 169.349C164.023 169.539 163.025 170.471 163.075 171.56C163.108 172.235 163.518 172.831 163.646 173.494C163.796 174.239 163.58 175.034 163.812 175.755C164.001 176.23 164.282 176.662 164.64 177.026L167.572 180.5C168.814 181.95 170.057 183.42 171.655 184.422C173.253 185.424 175.324 185.892 177.08 185.18C178.329 184.599 179.368 183.646 180.053 182.451C180.782 181.291 181.295 180.024 181.978 178.827C183.042 176.915 184.445 175.213 186.119 173.804C185.258 173.581 184.177 173.266 183.635 172.562C183.48 172.338 183.349 172.1 183.241 171.85L182.571 170.401C182.342 170.389 182.114 170.424 181.901 170.505C181.687 170.585 181.492 170.709 181.328 170.868C181.041 171.201 180.732 171.515 180.405 171.808C179.821 172.247 179.03 172.368 178.5 172.869C178.295 173.084 178.109 173.316 177.945 173.564C177.544 174.091 177.035 174.526 176.453 174.841C175.87 175.155 175.227 175.341 174.566 175.386Z" fill="#3F3D56"/>
<path d="M186.273 166.728C187.71 164.106 187.643 160.963 188.053 158.003C188.098 157.218 188.373 156.465 188.844 155.837C189.672 154.901 191.134 154.889 192.385 155.009C192.753 155.05 193.213 155.224 193.192 155.592C193.163 155.725 193.099 155.846 193.006 155.944C191.794 157.509 191.081 159.402 190.96 161.377C191.61 161.829 192.617 160.901 193.242 161.377C193.656 161.725 193.466 162.413 193.217 162.91C192.64 164.061 192.045 165.204 191.432 166.338C190.943 167.338 190.305 168.258 189.54 169.067C189.014 169.572 188.397 169.97 187.863 170.467C186.621 171.63 185.871 173.274 184.587 174.409C184.479 174.526 184.332 174.601 184.173 174.62C184.01 174.609 183.856 174.54 183.738 174.426C183.097 173.904 182.565 173.261 182.173 172.533C181.685 171.63 181.759 171.365 182.529 170.728C183.97 169.589 185.374 168.367 186.273 166.728Z" fill="#BE6F72"/>
<path d="M172.164 173.606C172.413 173.759 172.719 173.933 172.993 173.804C173.104 173.737 173.199 173.645 173.27 173.535C173.744 172.904 174.138 172.217 174.446 171.49C174.499 171.387 174.529 171.274 174.533 171.158C174.533 170.893 174.297 170.699 174.078 170.545C172.902 169.796 171.637 169.195 170.313 168.757C169.22 168.342 168.077 167.982 166.918 168.086C166.482 168.115 166.057 168.232 165.668 168.43C165.278 168.628 164.933 168.902 164.653 169.237C163.825 170.301 165.212 170.624 166.081 171.009C168.094 171.924 170.272 172.454 172.164 173.606Z" fill="#1890FF"/>
<path opacity="0.1" d="M170.86 180.645C170.846 180.74 170.855 180.836 170.885 180.927C170.915 181.018 170.966 181.1 171.034 181.167C171.154 180.579 170.997 179.958 171.121 179.366C171.303 178.475 172.169 177.805 172.243 176.91C170.657 176.6 170.873 179.685 170.86 180.645Z" fill="black"/>
<path opacity="0.2" d="M243.874 148.263V152.342L227.036 153.365L226.527 149.282L243.874 148.263Z" fill="black"/>
<path d="M169.278 154.86C170.33 154.002 169.721 152.205 170.434 151.054C170.848 150.425 171.547 150.093 172.235 149.812C173.064 149.424 173.953 149.177 174.864 149.083C175.321 149.039 175.781 149.099 176.211 149.257C176.641 149.415 177.03 149.669 177.349 149.998C177.618 150.304 177.8 150.677 178.053 150.996C178.366 151.368 178.773 151.648 179.233 151.807C179.692 151.966 180.186 151.998 180.662 151.899C181.212 151.775 181.784 151.356 181.747 150.793C181.684 150.451 181.51 150.139 181.25 149.907L180.065 148.594C178.72 147.104 177.225 145.522 175.249 145.149C173.875 144.888 172.467 145.257 171.142 145.7C170.607 145.878 170.007 146.143 169.858 146.685C169.759 147.058 169.908 147.464 169.821 147.841C169.651 148.59 168.69 148.843 168.243 149.472C167.796 150.102 167.932 150.847 167.804 151.543C167.676 152.238 167.303 152.917 167.257 153.638C167.228 154.073 167.448 154.88 167.937 155.038C168.425 155.195 168.976 154.342 169.278 154.86Z" fill="#3F3D56"/>
<path d="M181.345 150.197C180.996 148.375 180.243 146.654 179.142 145.161C178.163 143.767 176.801 142.685 175.221 142.047C174.431 141.739 173.581 141.613 172.735 141.68C171.89 141.746 171.07 142.004 170.338 142.433C169.252 143.208 168.406 144.275 167.899 145.509C166.827 147.82 166.429 150.644 167.676 152.864C168.173 152.259 169.026 152.532 169.779 152.313C170.723 152.044 171.523 151.414 172.421 151.021C175.134 149.824 178.446 150.793 181.345 150.197Z" fill="#FED253"/>
<path opacity="0.1" d="M168.309 150.068C168.214 149.323 168.152 148.458 168.682 147.928C168.708 147.895 168.742 147.869 168.78 147.852C168.818 147.835 168.86 147.827 168.901 147.828C168.938 147.84 168.973 147.86 169.002 147.885C169.031 147.911 169.055 147.942 169.071 147.977C169.377 148.46 169.638 148.97 169.85 149.501C169.541 149.43 169.218 149.453 168.923 149.568C168.628 149.682 168.373 149.882 168.193 150.143" fill="black"/>
<path opacity="0.1" d="M177.987 147.965L177.838 146.486C177.813 146.365 177.824 146.239 177.867 146.122C177.929 146.025 178.025 145.954 178.137 145.923C178.249 145.892 178.368 145.904 178.471 145.956C178.675 146.069 178.843 146.237 178.956 146.441C179.3 146.97 179.586 147.535 179.809 148.126C179.142 147.998 178.456 148.006 177.792 148.151" fill="black"/>
<path opacity="0.1" d="M181.693 207.963V211.342L178.84 211.533H163.833V207.963H181.693Z" fill="black"/>
<path d="M181.693 207.963V211.533H163.833L116.386 152.097V149.29H126.332L181.693 207.963Z" fill="#F1C0C0"/>
<path opacity="0.1" d="M181.693 207.963V211.533H163.833L116.386 152.097V149.29H126.332L181.693 207.963Z" fill="black"/>
<path opacity="0.1" d="M181.693 207.963V211.533H163.833L116.386 152.097V149.29L164.09 207.963H181.693Z" fill="black"/>
<path d="M122.605 267.535C122.637 267.703 122.633 267.876 122.594 268.042C122.556 268.208 122.483 268.365 122.382 268.502C122.28 268.64 122.151 268.754 122.003 268.839C121.854 268.924 121.69 268.978 121.52 268.997C120.369 269.386 119.148 269.771 118.332 270.653C117.516 271.535 117.355 273.171 118.332 273.887C118.831 274.189 119.405 274.345 119.988 274.339C121.864 274.467 123.819 274.442 125.521 273.647C126.738 273.084 127.885 272.123 129.223 272.21C129.914 272.252 130.651 272.575 131.268 272.26C131.885 271.945 132.059 271.067 132.063 270.334C132.079 268.804 131.848 267.282 131.38 265.825C131.318 265.626 128.684 265.473 128.37 265.411L125.177 264.997C124.572 264.918 123.268 264.462 122.792 264.968C122.316 265.473 122.605 266.935 122.605 267.535Z" fill="#1890FF"/>
<path d="M141.658 257.199C141.793 257.945 142.013 258.673 142.312 259.369C142.755 260.495 143.323 261.692 144.408 262.239C145.393 262.731 146.602 262.553 147.605 262.085C148.023 261.912 148.389 261.634 148.669 261.278C148.992 260.715 149.136 260.066 149.083 259.419C149.083 257.816 148.988 256.16 148.255 254.735C147.625 253.493 146.528 252.425 146.511 251.05L142.739 251.779C142.537 251.798 142.345 251.874 142.184 251.998C142.064 252.124 141.981 252.28 141.944 252.45C141.541 253.999 141.444 255.612 141.658 257.199Z" fill="#1890FF"/>
<path d="M96.6085 217.86C96.4512 219.193 96.5174 220.622 97.2131 221.773C97.9088 222.924 99.3747 223.686 100.642 223.227C100.707 223.21 100.768 223.181 100.821 223.14C100.874 223.1 100.919 223.049 100.952 222.991C100.986 222.851 100.967 222.703 100.899 222.577C100.339 221.084 100.385 219.431 101.027 217.972C101.11 217.781 101.288 217.558 101.482 217.632C101.564 217.674 101.629 217.741 101.669 217.823C101.869 218.17 101.97 218.565 101.959 218.966C101.9 219.328 101.889 219.697 101.926 220.063C102.004 220.419 102.385 220.755 102.716 220.601C102.812 220.543 102.895 220.465 102.96 220.373C103.025 220.281 103.07 220.177 103.093 220.067C104.017 217.396 103.598 214.477 103.176 211.682C103.18 211.618 103.169 211.553 103.145 211.494C103.121 211.434 103.084 211.381 103.037 211.337C102.99 211.293 102.934 211.26 102.873 211.24C102.812 211.22 102.747 211.214 102.683 211.222C100.729 211.028 99.6604 210.56 98.5423 212.377C97.5816 213.91 96.6085 216.017 96.6085 217.86Z" fill="#1890FF"/>
<path d="M119.458 211.065C118.879 213.475 118.295 215.914 118.258 218.39C118.268 219.933 118.384 221.472 118.605 222.999L119.04 226.585C119.189 227.794 119.334 228.999 119.545 230.196C119.68 230.812 119.754 231.441 119.765 232.072C119.724 232.694 119.626 233.311 119.471 233.915C119.21 235.183 119.065 236.471 119.036 237.766C118.991 239.836 119.247 241.907 119.409 243.977C119.731 248.103 119.683 252.25 119.264 256.367C119.097 257.478 119.338 258.612 119.943 259.56C120.188 259.858 120.391 260.19 120.543 260.545C120.854 261.493 120.129 262.442 119.943 263.415C119.824 264.174 120.011 264.949 120.462 265.57C120.914 266.191 121.594 266.607 122.353 266.728C125.666 267.121 129.07 266.943 132.055 268.458C132.37 267.539 131.683 266.496 131.997 265.56C132.196 264.98 132.743 264.603 133.115 264.115C133.616 263.37 133.866 262.485 133.828 261.589C133.842 260.419 133.634 259.256 133.215 258.164C132.863 257.253 132.358 256.354 132.387 255.377C132.387 254.897 132.556 254.392 132.362 253.949C132.228 253.694 132.047 253.468 131.828 253.282C130.59 251.926 129.829 250.203 129.662 248.375C129.5 246.561 129.559 244.734 129.836 242.934C130.039 241.219 130.312 239.41 131.401 238.072C130.896 234.016 131.193 229.901 132.275 225.96C132.382 225.595 132.552 225.173 132.925 225.086C133.073 225.071 133.222 225.092 133.361 225.146C133.499 225.201 133.622 225.288 133.72 225.401C134.37 226.009 134.681 226.891 134.962 227.736C135.273 228.651 135.587 229.629 135.351 230.565C135.252 230.979 135.053 231.343 134.937 231.741C134.685 232.539 134.73 233.402 135.062 234.171C135.223 234.452 135.325 234.764 135.36 235.086C135.321 235.363 135.237 235.632 135.111 235.882C134.958 236.372 134.909 236.888 134.968 237.398C135.027 237.909 135.193 238.4 135.455 238.842C135.983 239.722 136.634 240.521 137.389 241.215C137.028 242.804 137.121 244.463 137.658 246.002C137.697 246.071 137.721 246.148 137.731 246.226C137.74 246.305 137.733 246.385 137.712 246.462C137.637 246.619 137.447 246.677 137.298 246.789C136.884 247.128 137.14 247.77 137.418 248.213C138.178 249.429 139.018 250.594 139.931 251.7C140.76 252.69 140.685 254.599 141.919 254.955C142.438 255.067 142.974 255.067 143.493 254.955C144.71 254.768 146.068 254.416 146.665 253.34C146.909 252.897 147.008 252.358 147.389 252.027C147.77 251.696 148.263 251.638 148.474 251.24C148.685 250.843 148.449 250.321 148.52 249.861C148.59 249.402 148.992 249.033 149.12 248.549C149.427 247.431 148.122 246.511 147.944 245.368C147.687 243.712 149.774 242.47 149.687 240.813C149.505 237.215 149.389 233.6 149.203 230.001C148.969 226.778 148.936 223.543 149.104 220.316C149.249 218.307 149.518 216.204 148.781 214.336C147.72 211.702 144.797 210.224 141.969 209.943C139.14 209.661 136.32 210.332 133.517 210.771C128.864 211.488 124.137 211.587 119.458 211.065Z" fill="#3F3D56"/>
<path d="M127.865 171.485C131.528 171.485 134.498 168.515 134.498 164.852C134.498 161.188 131.528 158.218 127.865 158.218C124.201 158.218 121.231 161.188 121.231 164.852C121.231 168.515 124.201 171.485 127.865 171.485Z" fill="#FBBEBE"/>
<path d="M125.164 172.724C124.939 173.248 124.56 173.693 124.078 173.998C123.595 174.303 123.031 174.455 122.46 174.434C122.22 175.428 122.796 176.43 123.454 177.212C124.821 178.803 126.588 180.001 128.573 180.682C130.557 181.362 132.687 181.501 134.743 181.084C135.543 180.941 136.302 180.624 136.966 180.157C137.862 179.408 138.464 178.367 138.664 177.217C138.855 176.074 138.909 174.914 138.826 173.759C138.849 173.531 138.784 173.303 138.643 173.121C138.478 172.993 138.273 172.926 138.064 172.931C136.664 172.806 135.202 172.753 133.972 172.065C132.742 171.378 131.869 169.825 132.461 168.55C132.366 168.748 129.947 168.844 129.628 168.885C128.63 169.026 127.632 169.183 126.639 169.365C126.161 169.392 125.689 169.481 125.235 169.63C124.634 169.941 124.858 169.788 124.999 170.351C125.21 171.212 125.521 171.829 125.164 172.724Z" fill="#FBBEBE"/>
<path d="M130.212 176.757C129.319 176.767 128.428 176.669 127.558 176.463C126.68 176.258 125.906 175.741 125.38 175.009C125.073 174.546 124.875 173.962 124.386 173.701C123.587 173.287 122.676 173.987 122.038 174.628C121.458 175.261 120.785 175.803 120.042 176.235C119.156 176.703 118.121 176.869 117.284 177.42C116.631 177.913 116.07 178.519 115.628 179.208L109.76 187.2C107.404 190.414 105.354 193.863 103.255 197.255C101.437 200.191 100.484 203.57 99.1138 206.737C99.0052 206.931 98.9603 207.154 98.9854 207.375C99.0351 207.591 99.296 207.764 99.4782 207.64C98.8612 208.253 99.4037 209.297 99.2587 210.158C99.094 210.761 98.7503 211.299 98.2732 211.702C99.1846 211.584 100.11 211.627 101.006 211.831C101.933 212.093 102.807 212.514 103.59 213.073C104.091 212.994 104.046 212.104 104.418 211.773C104.642 211.578 104.973 211.603 105.267 211.545C106.373 211.33 106.812 210.001 107.661 209.251C108.369 208.626 109.371 208.423 110.12 207.835C111.338 206.878 111.599 205.176 112.236 203.764C112.779 202.568 113.632 201.524 114.108 200.298C114.419 199.503 114.568 198.642 115.011 197.909C115.719 196.725 117.052 196.095 118.324 195.528C119.127 195.168 119.98 194.795 120.846 194.853C120.8 196.778 120.556 198.675 120.974 200.555C121.119 201.218 121.322 201.864 121.496 202.522C122.287 205.487 122.473 208.576 122.51 211.632C124.413 211.197 126.356 210.964 128.308 210.936C129.844 210.891 131.376 211.09 132.912 211.061C134.734 211.028 136.536 210.676 138.358 210.551C140.18 210.427 142.085 210.551 143.695 211.379C143.565 208.755 143.638 206.125 143.915 203.512L144.354 199.396C144.453 198.2 144.637 197.012 144.905 195.843C145.145 194.898 145.493 193.987 145.758 193.047C146.689 189.735 146.519 186.198 146.341 182.749C146.25 180.977 145.567 179.233 144.764 177.656C144.473 177.07 144.141 176.505 143.77 175.966C142.799 174.628 141.505 173.559 140.009 172.856C138.513 172.154 136.864 171.842 135.215 171.949C135.004 171.956 134.796 172.001 134.602 172.082C134.252 172.306 133.979 172.631 133.819 173.014C132.962 174.553 131.719 175.844 130.212 176.757Z" fill="#3F3D56"/>
<path d="M122.03 167.051C122.216 166.636 122.717 166.483 123.024 166.152C123.612 165.523 123.347 164.516 123.438 163.667C123.587 162.425 124.618 161.386 125.798 160.943C127.002 160.556 128.282 160.475 129.525 160.707C130.123 160.75 130.701 160.942 131.206 161.266C131.422 161.423 131.62 161.626 131.823 161.771C132.193 161.994 132.636 162.065 133.057 161.966C133.477 161.868 133.843 161.609 134.076 161.245C132.61 159.481 130.987 157.617 128.759 157.075C127.995 156.919 127.216 156.845 126.436 156.855C125.405 156.835 124.341 156.818 123.388 157.212C122.092 157.746 121.181 158.976 120.713 160.301C120.304 161.644 120.085 163.038 120.063 164.442C119.978 165.378 119.978 166.321 120.063 167.258C120.223 168.537 120.698 169.756 121.446 170.806C121.547 170.969 121.69 171.102 121.86 171.191C123.748 172.02 121.877 167.394 122.03 167.051Z" fill="#3F3D56"/>
<path d="M133.861 160.222C133.633 158.272 132.241 156.661 130.763 155.365C129.572 154.241 128.152 153.386 126.601 152.859C125.04 152.4 123.243 152.499 121.906 153.431C120.829 154.18 120.146 155.373 119.62 156.574C118.929 157.991 118.587 159.553 118.622 161.129C118.725 162.694 119.487 164.28 120.846 165.071C121.334 164.351 122.183 163.978 122.999 163.684C126.554 162.335 130.18 161.179 133.861 160.222Z" fill="#FED253"/>
<path opacity="0.1" d="M121.301 159.41C121.433 159.41 121.52 159.547 121.587 159.659C121.924 160.184 122.213 160.739 122.452 161.315C121.968 161.419 121.135 161.535 120.895 161.108C120.767 160.893 120.92 159.39 121.301 159.41Z" fill="black"/>
<path opacity="0.1" d="M130.738 158.475C130.639 158.57 130.523 158.375 130.523 158.234V156.628C130.52 156.583 130.53 156.539 130.552 156.499C130.569 156.48 130.59 156.464 130.614 156.452C130.637 156.441 130.663 156.434 130.689 156.433C131.024 156.396 131.302 156.682 131.517 156.955C131.844 157.398 132.128 157.871 132.366 158.367L130.614 158.313" fill="black"/>
<path d="M152.599 185.08C152.98 184.719 153.387 184.385 153.816 184.082C154.963 183.316 156.35 183.014 157.638 182.525C158.926 182.037 160.235 181.246 160.736 179.962C160.986 179.159 161.068 178.313 160.976 177.477C160.988 177.127 160.926 176.779 160.794 176.455C160.636 176.168 160.412 175.924 160.139 175.742C158.392 174.45 156.048 174.347 153.878 174.479C149.094 174.776 144.405 175.947 140.043 177.933C139.813 178.009 139.61 178.154 139.464 178.347C139.379 178.527 139.34 178.724 139.352 178.923C139.275 180.144 139.433 181.368 139.82 182.529C140.391 184.004 141.567 185.192 142.06 186.695C142.284 187.37 142.358 188.087 142.553 188.766C142.712 189.467 143.127 190.084 143.716 190.497C145.352 191.474 146.897 190.161 148.031 189.143L152.599 185.08Z" fill="#3F3D56"/>
<path d="M131.177 190.815L129.078 186.236C128.77 185.601 128.504 184.947 128.283 184.277C128.043 183.478 127.927 182.65 127.703 181.846C126.966 179.171 125.107 176.943 124.2 174.322C124.143 174.085 124.026 173.867 123.86 173.688C123.728 173.595 123.577 173.531 123.417 173.503C123.257 173.474 123.094 173.481 122.937 173.523C121.67 173.742 120.68 174.707 119.521 175.254C118.982 175.502 118.403 175.668 117.864 175.954C117.595 176.081 117.357 176.265 117.165 176.493C116.974 176.721 116.834 176.988 116.754 177.275C116.626 177.908 116.941 178.517 117.206 179.134C118.332 181.676 118.589 184.517 118.639 187.3C118.676 189.172 118.581 191.18 117.475 192.683C115.351 195.582 116.709 199.839 117.504 203.346C117.599 203.76 117.711 204.207 117.777 204.646C117.847 205.196 117.879 205.749 117.872 206.303C117.872 208.162 117.769 210.079 116.99 211.765C117.759 212.174 118.606 212.414 119.475 212.469C121.88 212.775 124.294 212.99 126.718 213.115C127.477 213.186 128.243 213.147 128.991 212.999C129.88 212.758 130.663 212.229 131.217 211.494C131.771 210.759 132.065 209.861 132.051 208.94C132.184 210.088 132.428 211.334 133.26 212.129C134.093 212.924 135.306 213.044 136.436 213.106C139.627 213.275 142.826 213.185 146.002 212.837C146.205 212.828 146.404 212.782 146.59 212.7C147.203 212.394 147.236 211.549 147.186 210.87C147.095 209.599 147 208.328 146.847 207.065C146.717 206.259 146.65 205.445 146.648 204.63C146.711 203.791 146.85 202.959 147.062 202.145C147.617 199.561 148.056 196.923 147.87 194.277C147.796 193.633 147.77 192.984 147.791 192.335C147.899 190.873 148.669 189.482 148.524 188.029C148.11 183.755 147.774 179.37 146.582 175.245C146.366 174.508 146.093 173.717 145.451 173.295C144.623 172.74 143.459 173.03 142.511 172.678C142.066 172.471 141.643 172.22 141.248 171.929C140.39 171.392 139.406 171.089 138.395 171.051C137.633 171.022 136.784 171.191 136.325 171.804C136.112 172.149 135.971 172.534 135.91 172.935C135.31 175.461 134.606 177.958 133.902 180.455L133.227 182.848L131.418 189.275C131.239 189.958 131.36 190.169 131.177 190.815Z" fill="#1890FF"/>
<path d="M141.766 165.742L181.821 207.835V211.404H163.961L133.861 172.119" fill="#F1C0C0"/>
<path opacity="0.1" d="M141.766 165.742L181.821 207.835V211.404H163.961L133.861 172.119" fill="black"/>
<path opacity="0.1" d="M134.498 171.564L134.627 171.61L164.218 207.835H181.821V211.404H163.961L133.861 172.119L134.498 171.564Z" fill="black"/>
<path d="M139.107 172.45C137.658 173.084 136.047 173.896 135.612 175.419C135.526 175.687 135.508 175.971 135.558 176.248C135.664 176.573 135.866 176.858 136.138 177.065C136.409 177.273 136.737 177.394 137.078 177.411C137.76 177.428 138.438 177.304 139.07 177.047L147.621 174.223C147.853 174.148 148.118 174.036 148.176 173.809C148.191 173.665 148.162 173.521 148.093 173.395C147.828 172.749 147.567 171.428 147.012 170.976C146.557 170.612 145.654 170.74 145.103 170.748C142.983 170.765 140.991 171.622 139.107 172.45Z" fill="#1890FF"/>
<path d="M146.731 174.558C148.171 174.554 149.604 174.776 150.975 175.216C152.353 175.664 153.573 176.497 154.491 177.618C154.758 177.932 154.948 178.303 155.046 178.703C155.129 179.117 156.479 179.366 156.18 179.647C157.087 179.502 156.872 179.929 157.791 179.921C158.711 179.912 159.704 179.676 160.255 178.943C160.638 178.341 160.808 177.629 160.74 176.918C160.752 176.427 160.658 175.938 160.466 175.486C160.052 174.616 159.1 174.148 158.222 173.746L150.826 170.363C150.397 170.135 149.937 169.972 149.46 169.879C149.058 169.841 148.654 169.851 148.255 169.908L144.905 170.293C145.637 170.767 146.234 171.424 146.635 172.199C147.037 172.973 147.229 173.839 147.194 174.711" fill="#3F3D56"/>
</svg>
