<svg width="313" height="80" viewBox="0 0 313 80" fill="none" xmlns="http://www.w3.org/2000/svg">
<path d="M166.729 58.3178C168.775 58.3178 170.467 56.6257 170.467 54.5794C170.467 52.5332 168.775 50.8411 166.729 50.8411C164.683 50.8411 162.991 52.5332 162.991 54.5794C162.991 56.6257 164.683 58.3178 166.729 58.3178Z" fill="#1890FF"/>
<path d="M200.195 36.202C197.184 36.202 195.233 37.291 194.046 38.9665C192.859 37.2073 190.993 36.202 188.491 36.202C185.65 36.202 183.784 37.291 182.809 38.7151V36.7884H176.449V57.7313H182.809V45.9195C182.809 43.4483 183.996 41.9822 186.117 41.9822C188.152 41.9822 189.17 43.3226 189.17 45.4169V57.7313H195.53V45.9195C195.53 43.4483 196.718 41.9822 198.838 41.9822C200.873 41.9822 201.891 43.3226 201.891 45.4169V57.7313H208.251V44.8724C208.251 39.6366 205.071 36.202 200.195 36.202Z" fill="white"/>
<path d="M227.992 36.7884V38.757C226.593 37.1654 224.515 36.202 221.674 36.202C216.119 36.202 211.539 41.0189 211.539 47.2599C211.539 53.5009 216.119 58.3178 221.674 58.3178C224.515 58.3178 226.593 57.3544 227.992 55.7627V57.7313H234.353V36.7884H227.992ZM222.946 52.3699C220.02 52.3699 217.9 50.4013 217.9 47.2599C217.9 44.1184 220.02 42.1498 222.946 42.1498C225.872 42.1498 227.992 44.1184 227.992 47.2599C227.992 50.4013 225.872 52.3699 222.946 52.3699Z" fill="white"/>
<path d="M245.38 40.5162V36.7884H239.019V57.7313H245.38V48.2651C245.38 44.1184 249.111 43.0713 251.74 43.4901V36.3695C249.069 36.3695 246.228 37.7099 245.38 40.5162Z" fill="white"/>
<path d="M275.067 57.7313L267.138 47.2599L274.855 36.7884H267.435L261.074 45.9614V28.4112H254.714V57.7313H261.074V48.4746L267.859 57.7313H275.067Z" fill="white"/>
<path d="M281.805 49.773H296.858C297.028 48.9772 297.112 48.1395 297.112 47.2599C297.112 40.9351 292.533 36.202 286.342 36.202C279.642 36.202 275.062 41.0189 275.062 47.2599C275.062 53.5009 279.557 58.3178 286.808 58.3178C290.837 58.3178 293.975 56.8517 296.052 54.0035L290.964 51.1134C290.116 52.0349 288.632 52.705 286.893 52.705C284.561 52.705 282.61 51.9511 281.805 49.773ZM281.677 45.0818C282.271 42.9456 283.882 41.7728 286.299 41.7728C288.208 41.7728 290.116 42.6524 290.794 45.0818H281.677Z" fill="white"/>
<path d="M312.523 42.82V36.7884H308.156V30.9244L301.795 32.8092V36.7884H298.403V42.82H301.795V50.2338C301.795 56.0978 304.212 58.5691 312.523 57.7313V52.0349C309.725 52.2024 308.156 52.0349 308.156 50.2338V42.82H312.523Z" fill="white"/>
<path d="M91.1697 42.82V36.7884H86.7898V30.9244L80.4112 32.8092V36.7884H77.0093V42.82H80.4112V50.2338C80.4112 56.0978 82.8351 58.5691 91.1697 57.7313V52.0349C88.3631 52.2024 86.7898 52.0349 86.7898 50.2338V42.82H91.1697Z" fill="white"/>
<path d="M109.802 36.7884V38.757C108.399 37.1654 106.315 36.202 103.466 36.202C97.8954 36.202 93.3029 41.0189 93.3029 47.2599C93.3029 53.5009 97.8954 58.3178 103.466 58.3178C106.315 58.3178 108.399 57.3544 109.802 55.7627V57.7313H116.181V36.7884H109.802ZM104.742 52.3699C101.808 52.3699 99.6814 50.4013 99.6814 47.2599C99.6814 44.1184 101.808 42.1498 104.742 42.1498C107.676 42.1498 109.802 44.1184 109.802 47.2599C109.802 50.4013 107.676 52.3699 104.742 52.3699Z" fill="white"/>
<path d="M126.691 42.9037C126.691 42.1498 127.371 41.7309 128.477 41.7309C129.88 41.7309 130.731 42.4849 131.326 43.5739L136.769 40.6838C134.983 37.7099 131.921 36.202 128.477 36.202C124.054 36.202 120.142 38.5057 120.142 43.0713C120.142 50.3175 130.603 49.1028 130.603 51.4066C130.603 52.2443 129.838 52.705 128.307 52.705C126.436 52.705 125.245 51.8254 124.692 50.2338L119.164 53.3333C120.823 56.7261 124.054 58.3178 128.307 58.3178C132.899 58.3178 137.152 56.2653 137.152 51.4485C137.152 43.6996 126.691 45.2912 126.691 42.9037Z" fill="white"/>
<path d="M160.748 57.7313L152.796 47.2599L160.535 36.7884H153.093L146.715 45.9614V28.4112H140.336V57.7313H146.715V48.4746L153.519 57.7313H160.748Z" fill="white"/>
<path d="M9.62855 80H45.6986C51.0313 80 55.3271 75.6636 55.3271 70.2804V20.9346C55.3271 15.5514 51.0313 11.215 45.6986 11.215H33.9962C34.6628 10.0935 35.0331 8.82243 35.0331 7.47664C35.0331 3.36449 31.7001 0 27.6265 0C23.5529 0 20.2199 3.36449 20.2199 7.47664C20.2199 8.82243 20.5903 10.0935 21.2569 11.215H9.62855C4.29581 11.215 0 15.5514 0 20.9346V70.3551C0 75.6636 4.29581 80 9.62855 80ZM27.6265 4.48598C29.256 4.48598 30.5891 5.83178 30.5891 7.47664C30.5891 9.1215 29.256 10.4673 27.6265 10.4673C25.9971 10.4673 24.6639 9.1215 24.6639 7.47664C24.6639 5.83178 25.9971 4.48598 27.6265 4.48598ZM4.44394 20.9346C4.44394 18.0187 6.73998 15.7009 9.62855 15.7009H45.6986C48.5871 15.7009 50.8832 18.0187 50.8832 20.9346V70.3551C50.8832 73.271 48.5871 75.5888 45.6986 75.5888H9.62855C6.73998 75.5888 4.44394 73.271 4.44394 70.3551V20.9346Z" fill="white"/>
<path d="M15.6434 23.9252H39.6836C40.9221 23.9252 41.8691 22.9533 41.8691 21.6822C41.8691 20.4112 40.9221 19.4393 39.6836 19.4393H15.6434C14.4049 19.4393 13.4579 20.4112 13.4579 21.6822C13.4579 22.9533 14.4049 23.9252 15.6434 23.9252Z" fill="white"/>
<path d="M44.1122 48.5993L37.9476 54.7702H37.9405C36.5926 53.4188 34.9914 52.3466 33.2286 51.6151C31.4659 50.8836 29.5762 50.507 27.6677 50.507C25.7593 50.507 23.8695 50.8836 22.1068 51.6151C20.344 52.3466 18.7429 53.4188 17.3949 54.7702H17.3843L11.215 48.5993L27.6665 32.1495L44.1122 48.5993Z" fill="#1890FF"/>
<path d="M36.1276 56.5896L27.6724 65.0469L19.2054 56.5896C20.3119 55.4727 21.6295 54.5873 23.0816 53.9849C24.5336 53.3826 26.091 53.0754 27.663 53.0813C28.2287 53.081 28.7938 53.1205 29.354 53.1996C31.9224 53.5562 34.3024 54.7473 36.1276 56.5896Z" fill="white"/>
</svg>
