<?xml version="1.0" encoding="utf-8"?>
<!-- Svg Vector Icons : http://www.onlinewebfonts.com/icon -->
<!DOCTYPE svg PUBLIC "-//W3C//DTD SVG 1.1//EN" "http://www.w3.org/Graphics/SVG/1.1/DTD/svg11.dtd">
<svg version="1.1" xmlns="http://www.w3.org/2000/svg" xmlns:xlink="http://www.w3.org/1999/xlink" x="0px" y="0px" viewBox="0 0 1000 1000" enable-background="new 0 0 1000 1000" xml:space="preserve">
<metadata> Svg Vector Icons : http://www.onlinewebfonts.com/icon </metadata>
<g><path d="M549,500L979.5,69.5c14-14,14-35,0-49c-14-14-35-14-49,0L500,451L69.5,20.5c-14-14-35-14-49,0c-14,14-14,35,0,49L451,500L20.5,930.5c-14,14-14,35,0,49c7,7,17.5,10.5,24.5,10.5c7,0,17.5-3.5,24.5-10.5L500,549l430.5,430.5c7,7,17.5,10.5,24.5,10.5c7,0,17.5-3.5,24.5-10.5c14-14,14-35,0-49L549,500z"/></g>
</svg>